<?xml version="1.0" encoding="UTF-8" standalone="no"?>
<!-- Created with Inkscape (http://www.inkscape.org/) -->

<svg
   xmlns:dc="http://purl.org/dc/elements/1.1/"
   xmlns:cc="http://creativecommons.org/ns#"
   xmlns:rdf="http://www.w3.org/1999/02/22-rdf-syntax-ns#"
   xmlns:svg="http://www.w3.org/2000/svg"
   xmlns="http://www.w3.org/2000/svg"
   xmlns:sodipodi="http://sodipodi.sourceforge.net/DTD/sodipodi-0.dtd"
   xmlns:inkscape="http://www.inkscape.org/namespaces/inkscape"
   width="1024"
   height="1024"
   viewBox="0 0 270.93333 270.93334"
   version="1.1"
   id="svg8"
   sodipodi:docname="k.svg"
   inkscape:version="0.92.1 r15371">
  <defs
     id="defs2" />
  <sodipodi:namedview
     id="base"
     pagecolor="#ffffff"
     bordercolor="#666666"
     borderopacity="1.0"
     inkscape:pageopacity="0.0"
     inkscape:pageshadow="2"
     inkscape:zoom="0.7"
     inkscape:cx="660.39991"
     inkscape:cy="479.53968"
     inkscape:document-units="mm"
     inkscape:current-layer="layer1"
     showgrid="false"
     units="px"
     inkscape:window-width="1920"
     inkscape:window-height="1008"
     inkscape:window-x="0"
     inkscape:window-y="0"
     inkscape:window-maximized="1"
     showguides="true" />
  <metadata
     id="metadata5">
    <rdf:RDF>
      <cc:Work
         rdf:about="">
        <dc:format>image/svg+xml</dc:format>
        <dc:type
           rdf:resource="http://purl.org/dc/dcmitype/StillImage" />
        <dc:title />
      </cc:Work>
    </rdf:RDF>
  </metadata>
  <g
     inkscape:label="Layer 1"
     inkscape:groupmode="layer"
     id="layer1"
     transform="translate(0,-26.06665)">
    <path
       style="fill:#000000;stroke:#00ccff;stroke-width:0.26458332"
       d="m 27.122294,141.94193 c 2.871025,0.0292 12.258821,-3.53276 5.16296,0.0101 -2.888352,1.6572 9.043929,-5.26885 2.791415,-1.67016 -7.777345,4.64742 7.912395,-6.26644 4.609533,3.1976 1.941681,8.8563 7.100061,17.71462 3.934089,26.94336 -1.039594,8.95252 -3.916069,17.80605 -2.116508,26.88169 1.085144,9.78516 1.878308,19.61718 2.462965,29.44924 0.0374,7.27092 -2.081378,14.31354 -2.685885,21.53426 -0.671984,7.74321 -10.16135,15.35543 -17.351231,10.19269 -5.688347,-4.08195 -9.545856,-10.13305 -14.2446487,-15.17687 -4.3259716,-7.20567 0.8712567,-15.24571 5.1441497,-21.09302 7.676118,-7.39026 18.068458,-12.07986 28.699428,-12.89867 5.32203,-2.34784 -4.080936,2.5662 2.065308,-0.86033 2.650645,-1.49129 11.584354,-6.14565 4.353856,-2.1339 -4.775773,2.71031 6.770321,-5.82071 8.573762,-7.91085 7.144798,-6.28674 14.583606,-12.89226 17.587831,-22.27112 3.519029,-5.91504 -2.583325,-11.47083 -7.544548,-13.20711 5.2134,-7.69556 16.186257,-0.44219 15.045103,7.41936 -2.249905,8.96006 -8.003932,16.57505 -15.085623,22.35173 -7.699445,7.12285 -15.494453,14.46422 -25.339926,18.51984 8.746229,-5.44319 -4.122056,3.58623 -8.313792,3.06214 -5.74631,0.11982 -15.341123,4.9047 -8.192205,1.18766 -6.477474,3.6998 -10.6175,10.85151 -12.014301,18.00495 -0.612127,7.05929 6.662241,10.78028 10.013583,16.09348 2.177658,3.91883 8.733559,6.12656 10.787907,6.694 -2.514305,0.82656 -7.074668,4.66455 -2.782452,0.20084 3.461719,-6.68676 2.582605,-14.56257 4.438783,-21.72261 0.758257,-10.13675 -1.293261,-20.23045 -1.733068,-30.3282 -1.879521,-9.26129 -0.759397,-18.61162 1.091484,-27.74639 2.302655,-7.94116 1.524581,-16.30613 -1.735401,-23.86267 -2.292508,-5.5272 -4.090546,-12.662 3.964666,-13.64614 -2.838472,2.39226 -12.881135,7.64806 -4.315906,2.84967 4.798803,-2.64014 -5.868374,3.9519 -8.428482,3.65336 -6.112604,1.92546 -3.346169,-0.84633 0.2369,-3.0182 z"
       id="path151"
       inkscape:connector-curvature="0" />
  </g>
</svg>
