<?xml version="1.0" encoding="UTF-8" standalone="no"?>
<!-- Created with Inkscape (http://www.inkscape.org/) -->

<svg
   xmlns:dc="http://purl.org/dc/elements/1.1/"
   xmlns:cc="http://creativecommons.org/ns#"
   xmlns:rdf="http://www.w3.org/1999/02/22-rdf-syntax-ns#"
   xmlns:svg="http://www.w3.org/2000/svg"
   xmlns="http://www.w3.org/2000/svg"
   xmlns:sodipodi="http://sodipodi.sourceforge.net/DTD/sodipodi-0.dtd"
   xmlns:inkscape="http://www.inkscape.org/namespaces/inkscape"
   width="1024"
   height="1024"
   viewBox="0 0 270.93333 270.93334"
   version="1.1"
   id="svg8"
   sodipodi:docname="p.svg"
   inkscape:version="0.92.1 r15371">
  <defs
     id="defs2" />
  <sodipodi:namedview
     id="base"
     pagecolor="#ffffff"
     bordercolor="#666666"
     borderopacity="1.0"
     inkscape:pageopacity="0.0"
     inkscape:pageshadow="2"
     inkscape:zoom="0.7"
     inkscape:cx="442.54277"
     inkscape:cy="479.53968"
     inkscape:document-units="mm"
     inkscape:current-layer="layer1"
     showgrid="false"
     units="px"
     inkscape:window-width="1920"
     inkscape:window-height="1006"
     inkscape:window-x="0"
     inkscape:window-y="0"
     inkscape:window-maximized="1"
     showguides="true" />
  <metadata
     id="metadata5">
    <rdf:RDF>
      <cc:Work
         rdf:about="">
        <dc:format>image/svg+xml</dc:format>
        <dc:type
           rdf:resource="http://purl.org/dc/dcmitype/StillImage" />
        <dc:title></dc:title>
      </cc:Work>
    </rdf:RDF>
  </metadata>
  <g
     inkscape:label="Layer 1"
     inkscape:groupmode="layer"
     id="layer1"
     transform="translate(0,-26.06665)">
    <path
       style="fill:#000000;stroke:#000000;stroke-width:0.26458332;stroke-opacity:1"
       id="path48"
       d="m 63.018984,153.11648 c -0.998096,-1.31278 -2.320761,-2.27896 -3.658179,-3.21275 -1.464922,-1.03793 -3.233494,-1.38316 -4.948865,-1.79101 -3.639833,-0.68671 -7.308289,-1.17366 -11.007696,-1.35554 -2.270101,0.0261 -4.600739,-0.001 -6.827033,0.522 -0.536839,0.12619 -1.842333,0.55885 -2.388761,0.73533 -0.326594,0.12793 -0.659792,0.24013 -0.979781,0.38378 -0.465376,0.20892 -1.217272,0.63976 -1.663639,0.89666 -0.256673,0.14773 -1.023967,0.59559 -0.766657,0.44898 5.700987,-3.24841 7.363222,-4.40026 4.879607,-2.71758 -1.523188,1.08709 -2.86,2.40449 -4.196125,3.70742 -1.48727,1.46197 -2.967188,2.93044 -4.38014,4.46465 -1.231691,1.35047 -2.400621,2.73485 -3.143054,4.41546 -0.528171,1.41258 -0.579566,2.9244 -0.616892,4.41399 -0.101325,1.50601 0.189884,2.77327 0.89468,4.0951 1.028359,1.61991 2.393646,2.98707 3.724561,4.35616 1.909829,1.996 4.39247,3.23623 6.828073,4.46109 2.46307,1.10321 4.796729,2.47191 7.250256,3.59251 1.492212,0.65084 2.983243,1.30479 4.492939,1.91379 0.67541,0.4549 1.633919,0.54672 2.130264,1.22454 0.90197,2.89659 0.344628,0.57931 -6.462715,4.39675 -0.111456,0.0625 -0.255275,-0.0137 -0.383051,-0.0152 -0.158826,-0.002 -0.318031,-0.006 -0.476477,0.005 -0.197594,0.0139 -0.395923,0.0307 -0.590148,0.0696 -0.238977,0.0479 -0.47071,0.12662 -0.706064,0.18993 -3.159162,0.97421 -6.307426,1.99035 -9.419762,3.10523 -1.990553,0.75127 -4.001762,1.48112 -5.915938,2.41757 -0.553966,0.27101 -2.16102,1.18886 -1.629751,0.87569 6.418844,-3.7838 5.892223,-3.47593 3.429902,-1.83838 -1.929373,1.3577 -3.655438,2.95243 -5.087121,4.82525 -0.681069,0.98726 -1.302677,2.15162 -1.126961,3.39848 0.0321,0.22778 0.114031,0.44571 0.171046,0.66858 0.731331,1.7008 2.074496,3.0304 3.333492,4.35096 1.505109,1.52422 3.004258,3.05625 4.567863,4.52077 1.914356,1.67132 4.216974,2.85565 6.600772,3.71228 0.685575,0.24636 1.390669,0.4346 2.086002,0.6519 5.377069,1.64224 11.005706,1.99964 16.585837,2.27545 4.092636,0.0513 8.20647,-0.0978 12.250343,-0.77718 1.671476,-0.28082 3.677589,-0.77766 5.331931,-1.16536 2.675771,-0.76095 5.344036,-1.62383 7.837577,-2.87417 0.406189,-0.20367 1.587699,-0.88469 1.192874,-0.65978 -1.800579,1.0257 -3.606805,2.04146 -5.410207,3.06219 0.511677,-0.36108 1.026416,-0.74524 1.299255,-1.32313 0,0 6.735548,-3.30553 6.735548,-3.30553 v 0 c -0.0066,0.92678 -0.469175,1.37146 -1.166879,1.95201 -2.387671,1.39906 -4.762418,2.82042 -7.163014,4.19718 -2.744711,1.57411 -5.95239,2.36073 -8.958517,3.24037 -1.920004,0.42597 -3.374353,0.78179 -5.329134,1.07751 -4.068103,0.61544 -8.197672,0.74473 -12.305106,0.66276 -5.65975,-0.29307 -11.359282,-0.68468 -16.817176,-2.33276 -3.232912,-1.01962 -6.472088,-2.22351 -9.0328,-4.52769 -1.574197,-1.47421 -3.083818,-3.01602 -4.599345,-4.55013 -1.345034,-1.40926 -2.751449,-2.83244 -3.555622,-4.63578 -0.08301,-0.26752 -0.191792,-0.52837 -0.24904,-0.80256 -0.288103,-1.37987 0.209117,-2.74072 0.939137,-3.8924 0.355396,-0.48592 0.871525,-1.21168 1.261459,-1.65721 1.131872,-1.29327 2.490113,-2.37708 3.837494,-3.43207 5.092805,-3.61099 10.652359,-6.473 16.535232,-8.52177 3.201926,-1.13102 6.416667,-2.24649 9.678532,-3.19149 0.611767,-0.11026 1.261473,-0.1261 1.865641,-0.26371 0.108696,-0.0248 0.408447,-0.17446 0.313907,-0.11539 -6.251208,3.9062 -7.834686,2.00327 -5.953057,4.05705 -0.589536,-0.33748 -1.237638,-0.59602 -1.838859,-0.9228 -1.487506,-0.65201 -2.979819,-1.29377 -4.450696,-1.98288 -2.402959,-1.19119 -4.721358,-2.54959 -7.160954,-3.66913 -2.520291,-1.25955 -5.082952,-2.54251 -7.056425,-4.60582 -1.380574,-1.41768 -2.791287,-2.83538 -3.86532,-4.50844 -0.782934,-1.41907 -1.18706,-2.78984 -1.085196,-4.42841 0.02357,-1.56471 0.05396,-3.14908 0.509503,-4.66022 0.262661,-0.71892 0.300288,-0.91319 0.685299,-1.58908 0.64709,-1.13596 1.571173,-2.0728 2.385553,-3.08445 1.405393,-1.54799 2.869576,-3.03655 4.362894,-4.50017 1.329162,-1.31613 2.651278,-2.64941 4.123031,-3.80854 2.88431,-2.10194 0.595524,-0.46895 7.763742,-4.65206 1.09841,-0.641 2.244741,-1.2074 3.468402,-1.56767 0.852297,-0.24753 1.536679,-0.46857 2.418141,-0.6281 2.245799,-0.40645 4.558749,-0.35175 6.828803,-0.3315 3.754721,0.24011 7.490724,0.69936 11.192388,1.37839 1.821892,0.4157 3.667554,0.81031 5.176152,1.98329 1.361737,0.97994 2.65774,2.02919 3.7807,3.28434 0,0 -6.376675,3.90763 -6.376675,3.90763 z"
       inkscape:connector-curvature="0" />
  </g>
</svg>
