<?xml version="1.0" encoding="UTF-8" standalone="no"?>
<!-- Created with Inkscape (http://www.inkscape.org/) -->

<svg
   xmlns:dc="http://purl.org/dc/elements/1.1/"
   xmlns:cc="http://creativecommons.org/ns#"
   xmlns:rdf="http://www.w3.org/1999/02/22-rdf-syntax-ns#"
   xmlns:svg="http://www.w3.org/2000/svg"
   xmlns="http://www.w3.org/2000/svg"
   xmlns:sodipodi="http://sodipodi.sourceforge.net/DTD/sodipodi-0.dtd"
   xmlns:inkscape="http://www.inkscape.org/namespaces/inkscape"
   width="1024"
   height="1024"
   viewBox="0 0 270.93333 270.93334"
   version="1.1"
   id="svg8"
   sodipodi:docname="s.svg"
   inkscape:version="0.92.1 r15371">
  <defs
     id="defs2" />
  <sodipodi:namedview
     id="base"
     pagecolor="#ffffff"
     bordercolor="#666666"
     borderopacity="1.0"
     inkscape:pageopacity="0.0"
     inkscape:pageshadow="2"
     inkscape:zoom="0.7"
     inkscape:cx="442.54277"
     inkscape:cy="479.53968"
     inkscape:document-units="mm"
     inkscape:current-layer="layer1"
     showgrid="false"
     units="px"
     inkscape:window-width="1920"
     inkscape:window-height="1008"
     inkscape:window-x="0"
     inkscape:window-y="0"
     inkscape:window-maximized="1"
     showguides="true" />
  <metadata
     id="metadata5">
    <rdf:RDF>
      <cc:Work
         rdf:about="">
        <dc:format>image/svg+xml</dc:format>
        <dc:type
           rdf:resource="http://purl.org/dc/dcmitype/StillImage" />
        <dc:title />
      </cc:Work>
    </rdf:RDF>
  </metadata>
  <g
     inkscape:label="Layer 1"
     inkscape:groupmode="layer"
     id="layer1"
     transform="translate(0,-26.06665)">
    <path
       style="fill:#000000;stroke:#000000;stroke-width:0.26458332;stroke-opacity:1"
       d="m 28.454248,288.60544 c 2.433025,0.15286 10.44298,-3.62412 8.886029,-2.88552 -2.711945,1.3757 -7.336728,4.76928 -2.652835,0.93066 4.360866,-4.30627 2.626095,-11.29782 5.16791,-16.58534 1.508171,-5.0377 1.472311,-10.40056 -0.641757,-15.2584 -1.580331,-6.17569 -1.632971,-12.53664 -1.850188,-18.85531 -0.829417,-5.85453 -2.192938,-11.64234 -1.680651,-17.60984 0.475347,-7.89958 2.019258,-15.7425 1.504111,-23.70003 0.928594,-7.86418 -0.355647,-15.73457 0.015,-23.62537 -0.492067,-6.97845 1.711501,-15.40876 -3.756779,-20.91968 -1.790818,-4.38279 -11.927361,-2.30015 -10.871117,-2.35817 2.025588,-1.04433 7.836745,-4.94144 3.112902,-1.41185 -4.346806,3.66973 -9.329996,7.81865 -9.033849,14.13677 0.2171,7.47331 -0.569867,14.93763 -0.23585,22.39545 2.831335,10.52752 7.173791,21.27653 15.256126,28.89444 5.941284,5.0388 15.339453,6.6912 22.219174,2.62415 -2.615965,1.52045 -8.894892,5.19956 -2.930515,1.54544 7.418978,-5.59547 14.958866,-11.62647 19.496269,-19.92087 2.115638,-5.74492 1.944501,-12.0641 2.798045,-18.08642 -0.244287,-7.03234 3.055652,-13.90496 1.256554,-20.91869 -3.252022,-3.07007 -0.1089,-4.06399 2.510725,-5.59042 4.572903,-3.53787 4.934883,6.62642 4.569553,9.51515 -0.901384,5.72726 -1.789668,11.42041 -1.950128,17.23887 -1.296184,6.56541 -0.296207,14.16485 -5.31615,19.40134 -4.603393,6.54776 -11.040207,11.48618 -17.351821,16.26263 -5.740407,2.99296 -11.184007,8.06455 -18.138648,7.08044 -9.880143,0.0315 -17.479301,-7.80333 -21.673127,-16.0293 -3.364832,-6.53425 -6.704651,-13.4562 -7.5025077,-20.83525 0.25413,-7.4217 0.2903,-14.85542 0.4889167,-22.27988 0.30385,-6.33715 5.769827,-9.9471 9.997353,-13.79562 5.117443,-4.85255 14.210822,-7.81969 19.665879,-1.809 5.64839,5.69688 3.657049,14.27122 4.020419,21.4767 -0.36932,7.88606 0.941714,15.75833 0.0154,23.61379 0.374177,7.66626 -0.719337,15.24065 -1.524444,22.8357 -0.376837,5.90151 0.38187,11.71442 1.535734,17.48315 0.592364,6.1008 0.0863,12.28829 1.636768,18.29013 1.407484,4.9643 3.156745,10.13563 1.436904,15.30687 -2.074528,5.67101 -1.912621,12.08499 -4.372226,17.49083 -3.897139,4.73341 -9.813983,7.35866 -15.469303,9.34529 -3.036592,0.99809 -5.949644,1.61838 -2.203918,-0.6944 1.188804,-0.89905 2.376488,-1.80144 3.565982,-2.69844 z"
       id="path4671"
       inkscape:connector-curvature="0" />
  </g>
</svg>
